<svg width="24" height="24" viewBox="0 0 24 24" fill="none" xmlns="http://www.w3.org/2000/svg">
<path d="M14.8917 22.75H8.93504C3.54423 22.75 1.24097 20.43 1.24097 15V9C1.24097 3.57 3.54423 1.25 8.93504 1.25H14.8917C20.2826 1.25 22.5858 3.57 22.5858 9V15C22.5858 20.43 20.2826 22.75 14.8917 22.75ZM8.93504 2.75C4.35831 2.75 2.73014 4.39 2.73014 9V15C2.73014 19.61 4.35831 21.25 8.93504 21.25H14.8917C19.4685 21.25 21.0966 19.61 21.0966 15V9C21.0966 4.39 19.4685 2.75 14.8917 2.75H8.93504Z" fill="#737579"/>
<path d="M13.1648 16.28C12.9762 16.28 12.7876 16.21 12.6387 16.06L9.13414 12.53C8.84624 12.24 8.84624 11.76 9.13414 11.47L12.6387 7.94003C12.9266 7.65003 13.4031 7.65003 13.691 7.94003C13.9789 8.23003 13.9789 8.71003 13.691 9.00003L10.7127 12L13.691 15C13.9789 15.29 13.9789 15.77 13.691 16.06C13.552 16.21 13.3634 16.28 13.1648 16.28Z" fill="#737579"/>
</svg>
