<svg width="24" height="24" viewBox="0 0 24 24" fill="none" xmlns="http://www.w3.org/2000/svg">
<path d="M14.8917 22.75H8.93504C3.54423 22.75 1.24097 20.43 1.24097 15V9C1.24097 3.57 3.54423 1.25 8.93504 1.25H14.8917C20.2826 1.25 22.5858 3.57 22.5858 9V15C22.5858 20.43 20.2826 22.75 14.8917 22.75ZM8.93504 2.75C4.35831 2.75 2.73014 4.39 2.73014 9V15C2.73014 19.61 4.35831 21.25 8.93504 21.25H14.8917C19.4685 21.25 21.0966 19.61 21.0966 15V9C21.0966 4.39 19.4685 2.75 14.8917 2.75H8.93504Z" fill="white"/>
<path d="M10.6625 16.28C10.4739 16.28 10.2853 16.21 10.1363 16.06C9.84843 15.77 9.84843 15.29 10.1363 15L13.1147 12L10.1363 9.00003C9.84843 8.71003 9.84843 8.23003 10.1363 7.94003C10.4242 7.65003 10.9008 7.65003 11.1887 7.94003L14.6932 11.47C14.9811 11.76 14.9811 12.24 14.6932 12.53L11.1887 16.06C11.0398 16.21 10.8511 16.28 10.6625 16.28Z" fill="white"/>
</svg>
