<svg width="16" height="16" viewBox="0 0 16 16" fill="none" xmlns="http://www.w3.org/2000/svg">
<path d="M8.00008 8.49998C5.88675 8.49998 4.16675 6.77998 4.16675 4.66665C4.16675 2.55331 5.88675 0.833313 8.00008 0.833313C10.1134 0.833313 11.8334 2.55331 11.8334 4.66665C11.8334 6.77998 10.1134 8.49998 8.00008 8.49998ZM8.00008 1.83331C6.44008 1.83331 5.16675 3.10665 5.16675 4.66665C5.16675 6.22665 6.44008 7.49998 8.00008 7.49998C9.56008 7.49998 10.8334 6.22665 10.8334 4.66665C10.8334 3.10665 9.56008 1.83331 8.00008 1.83331Z" fill="white"/>
<path d="M13.7268 15.1667C13.4534 15.1667 13.2268 14.94 13.2268 14.6667C13.2268 12.3667 10.8801 10.5 8.0001 10.5C5.1201 10.5 2.77344 12.3667 2.77344 14.6667C2.77344 14.94 2.54677 15.1667 2.27344 15.1667C2.0001 15.1667 1.77344 14.94 1.77344 14.6667C1.77344 11.82 4.56677 9.5 8.0001 9.5C11.4334 9.5 14.2268 11.82 14.2268 14.6667C14.2268 14.94 14.0001 15.1667 13.7268 15.1667Z" fill="white"/>
</svg>
