<svg width="20" height="20" viewBox="0 0 20 20" fill="none" xmlns="http://www.w3.org/2000/svg">
<path d="M10.6667 16.3335C10.8779 16.4919 11.1238 16.5979 11.3841 16.6427C11.6444 16.6875 11.9115 16.6698 12.1636 16.591C12.4157 16.5123 12.6454 16.3748 12.8339 16.1898C13.0224 16.0048 13.1643 15.7777 13.2478 15.5272C13.3313 15.2767 13.3541 15.0099 13.3143 14.7488C13.2744 14.4877 13.1731 14.2399 13.0187 14.0256C12.8643 13.8114 12.6612 13.6369 12.4261 13.5166C12.191 13.3963 11.9307 13.3335 11.6667 13.3335H1.66666" stroke="#0950C3" stroke-width="1.66667" stroke-linecap="round" stroke-linejoin="round"/>
<path d="M14.5833 6.66683C14.7964 6.38274 15.0785 6.15782 15.403 6.01345C15.7274 5.86907 16.0834 5.81002 16.4371 5.84191C16.7908 5.87381 17.1304 5.99558 17.4238 6.19566C17.7172 6.39575 17.9546 6.66751 18.1134 6.98513C18.2722 7.30276 18.3472 7.65571 18.3312 8.01047C18.3153 8.36523 18.2089 8.71002 18.0222 9.0121C17.8355 9.31418 17.5747 9.56353 17.2645 9.73646C16.9543 9.90939 16.6051 10.0002 16.25 10.0002H1.66666" stroke="#0950C3" stroke-width="1.66667" stroke-linecap="round" stroke-linejoin="round"/>
<path d="M8.16666 3.66683C8.37793 3.50838 8.62382 3.4024 8.88409 3.35762C9.14435 3.31285 9.41153 3.33056 9.6636 3.40931C9.91568 3.48805 10.1454 3.62556 10.3339 3.81052C10.5224 3.99548 10.6643 4.22258 10.7478 4.47312C10.8313 4.72365 10.8541 4.99044 10.8143 5.25151C10.7744 5.51258 10.6731 5.76044 10.5187 5.97468C10.3643 6.18892 10.1612 6.3634 9.92612 6.48374C9.69105 6.60407 9.43074 6.66683 9.16666 6.66683H1.66666" stroke="#0950C3" stroke-width="1.66667" stroke-linecap="round" stroke-linejoin="round"/>
</svg>
