<svg width="16" height="16" viewBox="0 0 16 16" fill="none" xmlns="http://www.w3.org/2000/svg">
<path d="M8 13.9599C9 13.9599 9.83333 14.6666 10.6667 14.6666C12.6667 14.6666 14.6667 9.33322 14.6667 6.51989C14.6439 5.65637 14.2808 4.83684 13.6564 4.23992C13.032 3.643 12.197 3.31709 11.3333 3.33322C9.85333 3.33322 8.66666 4.29322 8 4.66655C7.33333 4.29322 6.14666 3.33322 4.66666 3.33322C3.8025 3.31533 2.96646 3.64065 2.34168 4.23794C1.7169 4.83523 1.35431 5.65579 1.33333 6.51989C1.33333 9.33322 3.33333 14.6666 5.33333 14.6666C6.16666 14.6666 7 13.9599 8 13.9599Z" stroke="white" stroke-width="1.33333" stroke-linecap="round" stroke-linejoin="round"/>
<path d="M6.66667 1.33325C7.33334 1.66659 8.00001 2.66659 8.00001 4.66659" stroke="white" stroke-width="1.33333" stroke-linecap="round" stroke-linejoin="round"/>
</svg>
