<svg width="16" height="16" viewBox="0 0 16 16" fill="none" xmlns="http://www.w3.org/2000/svg">
<path d="M6.66666 2.66663L5.33333 3.99996" stroke="#6B7280" stroke-width="1.33333" stroke-linecap="round" stroke-linejoin="round"/>
<path d="M11.3333 12.6666V14" stroke="#6B7280" stroke-width="1.33333" stroke-linecap="round" stroke-linejoin="round"/>
<path d="M1.33333 8H14.6667" stroke="#6B7280" stroke-width="1.33333" stroke-linecap="round" stroke-linejoin="round"/>
<path d="M4.66667 12.6666V14" stroke="#6B7280" stroke-width="1.33333" stroke-linecap="round" stroke-linejoin="round"/>
<path d="M6.00001 3.33336L5.08067 2.41403C4.88788 2.22034 4.64309 2.08667 4.37593 2.02919C4.10876 1.97171 3.83066 1.99288 3.57527 2.09014C3.31988 2.1874 3.09815 2.35659 2.9369 2.57722C2.77564 2.79786 2.68178 3.0605 2.66667 3.33336V11.3334C2.66667 11.687 2.80715 12.0261 3.0572 12.2762C3.30724 12.5262 3.64638 12.6667 4.00001 12.6667H12C12.3536 12.6667 12.6928 12.5262 12.9428 12.2762C13.1929 12.0261 13.3333 11.687 13.3333 11.3334V8.00003" stroke="#6B7280" stroke-width="1.33333" stroke-linecap="round" stroke-linejoin="round"/>
</svg>
