<svg width="20" height="20" viewBox="0 0 20 20" fill="none" xmlns="http://www.w3.org/2000/svg">
<path d="M15.8333 14.1668H17.5C18 14.1668 18.3333 13.8335 18.3333 13.3335V10.8335C18.3333 10.0835 17.75 9.41683 17.0833 9.25016C15.5833 8.8335 13.3333 8.3335 13.3333 8.3335C13.3333 8.3335 12.25 7.16683 11.5 6.41683C11.0833 6.0835 10.5833 5.8335 10 5.8335H4.16666C3.66666 5.8335 3.25 6.16683 3 6.5835L1.83333 9.00016C1.72298 9.32202 1.66666 9.65992 1.66666 10.0002V13.3335C1.66666 13.8335 2 14.1668 2.5 14.1668H4.16666" stroke="#0950C3" stroke-width="1.66667" stroke-linecap="round" stroke-linejoin="round"/>
<path d="M5.83333 15.8333C6.75381 15.8333 7.5 15.0871 7.5 14.1667C7.5 13.2462 6.75381 12.5 5.83333 12.5C4.91286 12.5 4.16666 13.2462 4.16666 14.1667C4.16666 15.0871 4.91286 15.8333 5.83333 15.8333Z" stroke="#0950C3" stroke-width="1.66667" stroke-linecap="round" stroke-linejoin="round"/>
<path d="M7.5 14.1665H12.5" stroke="#0950C3" stroke-width="1.66667" stroke-linecap="round" stroke-linejoin="round"/>
<path d="M14.1667 15.8333C15.0871 15.8333 15.8333 15.0871 15.8333 14.1667C15.8333 13.2462 15.0871 12.5 14.1667 12.5C13.2462 12.5 12.5 13.2462 12.5 14.1667C12.5 15.0871 13.2462 15.8333 14.1667 15.8333Z" stroke="#0950C3" stroke-width="1.66667" stroke-linecap="round" stroke-linejoin="round"/>
</svg>
