<svg width="20" height="20" viewBox="0 0 20 20" fill="none" xmlns="http://www.w3.org/2000/svg">
<path d="M6.66667 15.8333C5.95167 15.8349 5.2551 15.6066 4.6798 15.182C4.10451 14.7574 3.68099 14.1591 3.47177 13.4754C3.26255 12.7917 3.27871 12.0588 3.51788 11.385C3.75705 10.7112 4.20655 10.1321 4.8 9.73333C4.43411 9.27616 4.2143 8.71943 4.16918 8.13561C4.12406 7.55178 4.25571 6.9679 4.54701 6.45993C4.8383 5.95196 5.27575 5.54343 5.80243 5.2875C6.32911 5.03158 6.92062 4.94011 7.5 5.025V5C7.5 4.33696 7.76339 3.70107 8.23223 3.23223C8.70107 2.76339 9.33696 2.5 10 2.5C10.663 2.5 11.2989 2.76339 11.7678 3.23223C12.2366 3.70107 12.5 4.33696 12.5 5V5.03333C13.0794 4.94844 13.6709 5.03991 14.1976 5.29584C14.7243 5.55176 15.1617 5.96029 15.453 6.46826C15.7443 6.97623 15.8759 7.56012 15.8308 8.14394C15.7857 8.72776 15.5659 9.28449 15.2 9.74167C15.7897 10.1418 16.2357 10.7204 16.4725 11.3926C16.7092 12.0648 16.7243 12.7952 16.5155 13.4766C16.3067 14.158 15.885 14.7546 15.3123 15.1787C14.7396 15.6029 14.046 15.8323 13.3333 15.8333H6.66667Z" stroke="#0950C3" stroke-width="1.66667" stroke-linecap="round" stroke-linejoin="round"/>
<path d="M10 15.8335V18.3335" stroke="#0950C3" stroke-width="1.66667" stroke-linecap="round" stroke-linejoin="round"/>
</svg>
