<svg width="20" height="20" viewBox="0 0 20 20" fill="none" xmlns="http://www.w3.org/2000/svg">
<path d="M12 12L8 8" stroke="#0950C3" stroke-width="1.66667" stroke-linecap="round" stroke-linejoin="round"/>
<path d="M15.5475 17.904C15.235 18.2166 14.8111 18.3923 14.369 18.3924C13.927 18.3925 13.503 18.2169 13.1904 17.9044C12.8778 17.5919 12.7021 17.168 12.702 16.726C12.702 16.2839 12.8775 15.86 13.19 15.5473L11.7175 17.0207C11.4049 17.3333 10.9809 17.5089 10.5387 17.5089C10.0966 17.5089 9.67261 17.3333 9.35999 17.0207C9.04736 16.708 8.87173 16.284 8.87173 15.8419C8.87173 15.3998 9.04736 14.9758 9.35999 14.6632L14.6633 9.35984C14.9759 9.04721 15.4 8.87158 15.8421 8.87158C16.2842 8.87158 16.7082 9.04721 17.0208 9.35984C17.3334 9.67246 17.5091 10.0965 17.5091 10.5386C17.5091 10.9807 17.3334 11.4047 17.0208 11.7173L15.5475 13.1898C15.8601 12.8773 16.2841 12.7018 16.7261 12.7019C17.1682 12.702 17.5921 12.8776 17.9046 13.1903C18.2171 13.5029 18.3926 13.9268 18.3925 14.3689C18.3925 14.8109 18.2168 15.2348 17.9042 15.5473L15.5475 17.904Z" stroke="#0950C3" stroke-width="1.66667" stroke-linecap="round" stroke-linejoin="round"/>
<path d="M17.9167 17.9167L16.75 16.75" stroke="#0950C3" stroke-width="1.66667" stroke-linecap="round" stroke-linejoin="round"/>
<path d="M3.25001 3.25016L2.08334 2.0835" stroke="#0950C3" stroke-width="1.66667" stroke-linecap="round" stroke-linejoin="round"/>
<path d="M5.33666 10.64C5.02404 10.9526 4.60003 11.1282 4.15791 11.1282C3.7158 11.1282 3.29179 10.9526 2.97916 10.64C2.66654 10.3273 2.49091 9.90333 2.49091 9.46121C2.49091 9.0191 2.66654 8.59509 2.97916 8.28246L4.4525 6.80996C4.2977 6.96471 4.11394 7.08744 3.91171 7.17117C3.70948 7.25489 3.49274 7.29796 3.27387 7.29792C2.83183 7.29785 2.40793 7.12217 2.09541 6.80955C1.94067 6.65475 1.81793 6.47099 1.73421 6.26876C1.65049 6.06654 1.60741 5.8498 1.60745 5.63092C1.60753 5.18888 1.7832 4.76498 2.09583 4.45246L4.4525 2.0958C4.76501 1.78317 5.18891 1.6075 5.63095 1.60742C5.84983 1.60738 6.06657 1.65046 6.2688 1.73418C6.47102 1.8179 6.65478 1.94064 6.80958 2.09538C6.96437 2.25012 7.08718 2.43384 7.17097 2.63604C7.25477 2.83824 7.29792 3.05496 7.29795 3.27384C7.29799 3.49271 7.25492 3.70945 7.1712 3.91168C7.08747 4.11391 6.96474 4.29767 6.81 4.45246L8.2825 2.97913C8.59512 2.66651 9.01913 2.49088 9.46125 2.49088C9.90336 2.49088 10.3274 2.66651 10.64 2.97913C10.9526 3.29176 11.1282 3.71576 11.1282 4.15788C11.1282 4.6 10.9526 5.02401 10.64 5.33663L5.33666 10.64Z" stroke="#0950C3" stroke-width="1.66667" stroke-linecap="round" stroke-linejoin="round"/>
</svg>
