<svg width="20" height="20" viewBox="0 0 20 20" fill="none" xmlns="http://www.w3.org/2000/svg">
<path d="M14.1667 1.66699H5.83335C3.53217 1.66699 1.66669 3.53247 1.66669 5.83366V14.167C1.66669 16.4682 3.53217 18.3337 5.83335 18.3337H14.1667C16.4679 18.3337 18.3334 16.4682 18.3334 14.167V5.83366C18.3334 3.53247 16.4679 1.66699 14.1667 1.66699Z" stroke="#0F1729" stroke-width="1.66667" stroke-linecap="round" stroke-linejoin="round"/>
<path d="M13.3333 9.47525C13.4362 10.1688 13.3177 10.8771 12.9948 11.4994C12.6719 12.1218 12.1609 12.6264 11.5347 12.9416C10.9084 13.2569 10.1987 13.3666 9.50647 13.2552C8.81425 13.1438 8.17478 12.817 7.67901 12.3212C7.18324 11.8255 6.85642 11.186 6.74504 10.4938C6.63365 9.80154 6.74337 9.09183 7.05858 8.46556C7.3738 7.8393 7.87847 7.32837 8.5008 7.00545C9.12313 6.68254 9.83144 6.56407 10.525 6.66692C11.2324 6.77182 11.8874 7.10147 12.3931 7.60717C12.8988 8.11288 13.2284 8.76782 13.3333 9.47525Z" stroke="#0F1729" stroke-width="1.66667" stroke-linecap="round" stroke-linejoin="round"/>
<path d="M14.5833 5.41699H14.5916" stroke="#0F1729" stroke-width="1.66667" stroke-linecap="round" stroke-linejoin="round"/>
</svg>
