<svg width="40" height="40" viewBox="0 0 40 40" fill="none" xmlns="http://www.w3.org/2000/svg">
<rect width="40" height="40" rx="16" fill="#0950C3"/>
<path d="M22.5 27.5V20.8333C22.5 20.6123 22.4122 20.4004 22.2559 20.2441C22.0996 20.0878 21.8877 20 21.6667 20H18.3333C18.1123 20 17.9004 20.0878 17.7441 20.2441C17.5878 20.4004 17.5 20.6123 17.5 20.8333V27.5" stroke="white" stroke-width="1.66667" stroke-linecap="round" stroke-linejoin="round"/>
<path d="M12.5 18.3333C12.4999 18.0909 12.5528 17.8514 12.6548 17.6314C12.7569 17.4115 12.9057 17.2165 13.0908 17.06L18.9242 12.0608C19.225 11.8066 19.6061 11.6671 20 11.6671C20.3939 11.6671 20.775 11.8066 21.0758 12.0608L26.9092 17.06C27.0943 17.2165 27.2431 17.4115 27.3452 17.6314C27.4472 17.8514 27.5001 18.0909 27.5 18.3333V25.8333C27.5 26.2754 27.3244 26.6993 27.0118 27.0118C26.6993 27.3244 26.2754 27.5 25.8333 27.5H14.1667C13.7246 27.5 13.3007 27.3244 12.9882 27.0118C12.6756 26.6993 12.5 26.2754 12.5 25.8333V18.3333Z" stroke="white" stroke-width="1.66667" stroke-linecap="round" stroke-linejoin="round"/>
</svg>
