<svg width="16" height="16" viewBox="0 0 16 16" fill="none" xmlns="http://www.w3.org/2000/svg">
<path d="M10.318 8.59375L11.328 14.2778C11.3393 14.3447 11.3299 14.4135 11.3011 14.4749C11.2722 14.5364 11.2253 14.5875 11.1666 14.6216C11.1079 14.6557 11.0402 14.671 10.9725 14.6656C10.9049 14.6601 10.8405 14.6341 10.788 14.5911L8.40134 12.7997C8.28612 12.7137 8.14616 12.6672 8.00234 12.6672C7.85852 12.6672 7.71855 12.7137 7.60334 12.7997L5.21267 14.5904C5.16022 14.6334 5.09591 14.6593 5.02833 14.6648C4.96075 14.6702 4.89312 14.655 4.83444 14.621C4.77577 14.587 4.72885 14.536 4.69995 14.4746C4.67104 14.4133 4.66153 14.3446 4.67267 14.2778L5.682 8.59375" stroke="#0950C3" stroke-width="1.33333" stroke-linecap="round" stroke-linejoin="round"/>
<path d="M8 9.33301C10.2091 9.33301 12 7.54215 12 5.33301C12 3.12387 10.2091 1.33301 8 1.33301C5.79086 1.33301 4 3.12387 4 5.33301C4 7.54215 5.79086 9.33301 8 9.33301Z" stroke="#0950C3" stroke-width="1.33333" stroke-linecap="round" stroke-linejoin="round"/>
</svg>
