<svg width="16" height="16" viewBox="0 0 16 16" fill="none" xmlns="http://www.w3.org/2000/svg">
<path d="M8.00004 8.66634C8.36823 8.66634 8.66671 8.36786 8.66671 7.99967C8.66671 7.63148 8.36823 7.33301 8.00004 7.33301C7.63185 7.33301 7.33337 7.63148 7.33337 7.99967C7.33337 8.36786 7.63185 8.66634 8.00004 8.66634Z" stroke="#0F1729" stroke-width="1.33333" stroke-linecap="round" stroke-linejoin="round"/>
<path d="M8.00004 4.00033C8.36823 4.00033 8.66671 3.70185 8.66671 3.33366C8.66671 2.96547 8.36823 2.66699 8.00004 2.66699C7.63185 2.66699 7.33337 2.96547 7.33337 3.33366C7.33337 3.70185 7.63185 4.00033 8.00004 4.00033Z" stroke="#0F1729" stroke-width="1.33333" stroke-linecap="round" stroke-linejoin="round"/>
<path d="M8.00004 13.3333C8.36823 13.3333 8.66671 13.0349 8.66671 12.6667C8.66671 12.2985 8.36823 12 8.00004 12C7.63185 12 7.33337 12.2985 7.33337 12.6667C7.33337 13.0349 7.63185 13.3333 8.00004 13.3333Z" stroke="#0F1729" stroke-width="1.33333" stroke-linecap="round" stroke-linejoin="round"/>
</svg>
