<svg width="16" height="16" viewBox="0 0 16 16" fill="none" xmlns="http://www.w3.org/2000/svg">
<path d="M4 5.33301C4 4.27214 4.42143 3.25473 5.17157 2.50458C5.92172 1.75444 6.93913 1.33301 8 1.33301C9.06087 1.33301 10.0783 1.75444 10.8284 2.50458C11.5786 3.25473 12 4.27214 12 5.33301C12 9.99967 14 11.333 14 11.333H2C2 11.333 4 9.99967 4 5.33301Z" stroke="#6B7280" stroke-width="1.33333" stroke-linecap="round" stroke-linejoin="round"/>
<path d="M6.86667 14C6.97826 14.203 7.1423 14.3722 7.34166 14.4901C7.54102 14.608 7.76839 14.6702 8 14.6702C8.23162 14.6702 8.45898 14.608 8.65834 14.4901C8.8577 14.3722 9.02175 14.203 9.13334 14" stroke="#6B7280" stroke-width="1.33333" stroke-linecap="round" stroke-linejoin="round"/>
</svg>
