<svg width="15" height="15" viewBox="0 0 15 15" fill="none" xmlns="http://www.w3.org/2000/svg">
<path d="M13.9254 10.6137V12.6137C13.9262 12.7994 13.8882 12.9832 13.8138 13.1533C13.7394 13.3234 13.6303 13.4761 13.4935 13.6016C13.3567 13.7272 13.1951 13.8227 13.0193 13.8822C12.8434 13.9417 12.657 13.9638 12.4721 13.9471C10.4207 13.7242 8.4501 13.0232 6.71876 11.9004C5.10798 10.8768 3.74232 9.51117 2.71877 7.90039C1.59208 6.16119 0.890927 4.18105 0.672098 2.12039C0.655438 1.93603 0.677348 1.75023 0.736432 1.57481C0.795515 1.39938 0.890479 1.23818 1.01528 1.10147C1.14007 0.964759 1.29197 0.85553 1.46129 0.780738C1.63062 0.705947 1.81366 0.667231 1.99877 0.667057H3.99877C4.3223 0.663873 4.63596 0.778443 4.88127 0.989412C5.12659 1.20038 5.28682 1.49335 5.3321 1.81372C5.41651 2.45377 5.57306 3.08221 5.79877 3.68706C5.88846 3.92567 5.90787 4.185 5.8547 4.43431C5.80153 4.68362 5.67801 4.91246 5.49876 5.09372L4.6521 5.94039C5.60114 7.60942 6.98307 8.99135 8.6521 9.94039L9.49876 9.09372C9.68002 8.91448 9.90887 8.79096 10.1582 8.73779C10.4075 8.68462 10.6668 8.70403 10.9054 8.79372C11.5103 9.01942 12.1387 9.17598 12.7788 9.26039C13.1026 9.30608 13.3984 9.46919 13.6098 9.71872C13.8212 9.96825 13.9335 10.2868 13.9254 10.6137Z" stroke="#6B7280" stroke-width="1.33333" stroke-linecap="round" stroke-linejoin="round"/>
</svg>
