<svg width="19" height="18" viewBox="0 0 19 18" fill="none" xmlns="http://www.w3.org/2000/svg">
<path d="M8.77234 1.079C8.80886 1.00521 8.86527 0.943107 8.93521 0.899684C9.00516 0.856262 9.08584 0.833252 9.16817 0.833252C9.2505 0.833252 9.33118 0.856262 9.40113 0.899684C9.47107 0.943107 9.52748 1.00521 9.564 1.079L11.489 4.97816C11.6158 5.2348 11.803 5.45684 12.0345 5.62521C12.266 5.79358 12.5349 5.90326 12.8182 5.94483L17.1232 6.57483C17.2047 6.58665 17.2814 6.62106 17.3444 6.67416C17.4074 6.72727 17.4544 6.79695 17.4799 6.87534C17.5053 6.95372 17.5084 7.03767 17.4887 7.11769C17.4689 7.19772 17.4272 7.27062 17.3682 7.32816L14.2548 10.3598C14.0495 10.5599 13.8959 10.8069 13.8072 11.0795C13.7185 11.3521 13.6974 11.6422 13.7457 11.9248L14.4807 16.2082C14.4951 16.2897 14.4863 16.3736 14.4553 16.4504C14.4242 16.5272 14.3723 16.5937 14.3053 16.6423C14.2383 16.691 14.159 16.7198 14.0764 16.7256C13.9938 16.7313 13.9113 16.7137 13.8382 16.6748L9.98984 14.6515C9.73627 14.5184 9.45415 14.4488 9.16775 14.4488C8.88135 14.4488 8.59924 14.5184 8.34567 14.6515L4.49817 16.6748C4.42511 16.7135 4.34267 16.7309 4.26021 16.725C4.17776 16.7192 4.0986 16.6903 4.03175 16.6417C3.9649 16.5931 3.91303 16.5267 3.88205 16.45C3.85107 16.3734 3.84222 16.2896 3.8565 16.2082L4.59067 11.9257C4.63917 11.6429 4.61816 11.3527 4.52945 11.0799C4.44075 10.8071 4.28701 10.56 4.0815 10.3598L0.968169 7.329C0.908664 7.27152 0.866497 7.19849 0.846471 7.11823C0.826445 7.03796 0.829366 6.95368 0.854901 6.87499C0.880436 6.7963 0.927558 6.72636 0.9909 6.67315C1.05424 6.61993 1.13126 6.58558 1.21317 6.574L5.51734 5.94483C5.80088 5.90358 6.07016 5.79404 6.30199 5.62565C6.53382 5.45726 6.72126 5.23506 6.84817 4.97816L8.77234 1.079Z" stroke="#10B77F" stroke-width="1.66667" stroke-linecap="round" stroke-linejoin="round"/>
</svg>
