<svg width="40" height="40" viewBox="0 0 40 40" fill="none" xmlns="http://www.w3.org/2000/svg">
<path d="M25 3.33337H10C9.11597 3.33337 8.26812 3.68456 7.643 4.30968C7.01788 4.93481 6.66669 5.78265 6.66669 6.66671V33.3334C6.66669 34.2174 7.01788 35.0653 7.643 35.6904C8.26812 36.3155 9.11597 36.6667 10 36.6667H30C30.8841 36.6667 31.7319 36.3155 32.357 35.6904C32.9822 35.0653 33.3334 34.2174 33.3334 33.3334V11.6667L25 3.33337Z" stroke="#10B77F" stroke-width="3.33333" stroke-linecap="round" stroke-linejoin="round"/>
<path d="M23.3333 3.33337V10C23.3333 10.8841 23.6845 11.7319 24.3096 12.3571C24.9347 12.9822 25.7826 13.3334 26.6666 13.3334H33.3333" stroke="#10B77F" stroke-width="3.33333" stroke-linecap="round" stroke-linejoin="round"/>
<path d="M15 25L18.3333 28.3333L25 21.6666" stroke="#10B77F" stroke-width="3.33333" stroke-linecap="round" stroke-linejoin="round"/>
</svg>
