<svg width="12" height="12" viewBox="0 0 12 12" fill="none" xmlns="http://www.w3.org/2000/svg">
<path d="M5.68555 5.68555C7.48005 5.68555 8.93444 4.41297 8.93444 2.84278C8.93444 1.27259 7.48005 0 5.68555 0C3.89105 0 2.43667 1.27259 2.43667 2.84278C2.43667 4.41297 3.89105 5.68555 5.68555 5.68555ZM7.95977 6.39625H7.53589C6.97241 6.62278 6.34548 6.75159 5.68555 6.75159C5.02562 6.75159 4.40123 6.62278 3.83521 6.39625H3.41133C1.52799 6.39625 0 7.73324 0 9.38116V10.3051C0 10.8936 0.545711 11.3711 1.21833 11.3711H10.1528C10.8254 11.3711 11.3711 10.8936 11.3711 10.3051V9.38116C11.3711 7.73324 9.84311 6.39625 7.95977 6.39625Z" fill="white" fill-opacity="0.4"/>
</svg>
