<svg width="11" height="12" viewBox="0 0 11 12" fill="none" xmlns="http://www.w3.org/2000/svg">
<path d="M5.18216 11.8449C5.99927 11.8449 6.66208 11.1821 6.66208 10.3643H3.70224C3.70224 11.1821 4.36505 11.8449 5.18216 11.8449ZM10.1651 8.38142C9.71815 7.90115 8.88184 7.17866 8.88184 4.81199C8.88184 3.01443 7.62147 1.57546 5.922 1.22243V0.740306C5.922 0.331518 5.59072 0 5.18216 0C4.7736 0 4.44232 0.331518 4.44232 0.740306V1.22243C2.74285 1.57546 1.48248 3.01443 1.48248 4.81199C1.48248 7.17866 0.646164 7.90115 0.199205 8.38142C0.0603972 8.53064 -0.00114073 8.70901 1.5995e-05 8.88368C0.0025608 9.26308 0.300303 9.62398 0.742636 9.62398H9.62168C10.064 9.62398 10.362 9.26308 10.3643 8.88368C10.3655 8.70901 10.3039 8.53041 10.1651 8.38142Z" fill="#8A8587"/>
</svg>
