<svg width="9" height="12" viewBox="0 0 9 12" fill="none" xmlns="http://www.w3.org/2000/svg">
<path d="M7.46229 1.42139H5.68555C5.68555 0.637404 5.04815 0 4.26416 0C3.48018 0 2.84278 0.637404 2.84278 1.42139H1.06604C0.477498 1.42139 0 1.89889 0 2.48743V10.3051C0 10.8936 0.477498 11.3711 1.06604 11.3711H7.46229C8.05083 11.3711 8.52833 10.8936 8.52833 10.3051V2.48743C8.52833 1.89889 8.05083 1.42139 7.46229 1.42139ZM2.13208 9.41669C1.8367 9.41669 1.59906 9.17906 1.59906 8.88367C1.59906 8.58829 1.8367 8.35065 2.13208 8.35065C2.42746 8.35065 2.6651 8.58829 2.6651 8.88367C2.6651 9.17906 2.42746 9.41669 2.13208 9.41669ZM2.13208 7.28461C1.8367 7.28461 1.59906 7.04698 1.59906 6.75159C1.59906 6.45621 1.8367 6.21857 2.13208 6.21857C2.42746 6.21857 2.6651 6.45621 2.6651 6.75159C2.6651 7.04698 2.42746 7.28461 2.13208 7.28461ZM2.13208 5.15253C1.8367 5.15253 1.59906 4.91489 1.59906 4.61951C1.59906 4.32413 1.8367 4.08649 2.13208 4.08649C2.42746 4.08649 2.6651 4.32413 2.6651 4.61951C2.6651 4.91489 2.42746 5.15253 2.13208 5.15253ZM4.26416 0.888367C4.55955 0.888367 4.79718 1.12601 4.79718 1.42139C4.79718 1.71677 4.55955 1.95441 4.26416 1.95441C3.96878 1.95441 3.73114 1.71677 3.73114 1.42139C3.73114 1.12601 3.96878 0.888367 4.26416 0.888367ZM7.10694 9.06135C7.10694 9.15907 7.02699 9.23902 6.92927 9.23902H3.73114C3.63342 9.23902 3.55347 9.15907 3.55347 9.06135V8.706C3.55347 8.60828 3.63342 8.52833 3.73114 8.52833H6.92927C7.02699 8.52833 7.10694 8.60828 7.10694 8.706V9.06135ZM7.10694 6.92927C7.10694 7.02699 7.02699 7.10694 6.92927 7.10694H3.73114C3.63342 7.10694 3.55347 7.02699 3.55347 6.92927V6.57392C3.55347 6.4762 3.63342 6.39625 3.73114 6.39625H6.92927C7.02699 6.39625 7.10694 6.4762 7.10694 6.57392V6.92927ZM7.10694 4.79718C7.10694 4.8949 7.02699 4.97486 6.92927 4.97486H3.73114C3.63342 4.97486 3.55347 4.8949 3.55347 4.79718V4.44184C3.55347 4.34412 3.63342 4.26416 3.73114 4.26416H6.92927C7.02699 4.26416 7.10694 4.34412 7.10694 4.44184V4.79718Z" fill="white" fill-opacity="0.4"/>
</svg>
