<svg width="11" height="11" viewBox="0 0 11 11" fill="none" xmlns="http://www.w3.org/2000/svg">
<path d="M5.44865 0C2.43955 0 0 2.1666 0 4.83949C0 5.99259 0.455686 7.05006 1.2136 7.88138C0.946278 9.05194 0.0574663 10.0971 0.0468244 10.1094C0.0239066 10.1358 0.00857054 10.1689 0.00271477 10.2048C-0.00314101 10.2406 0.000740617 10.2775 0.0138791 10.3109C0.0270176 10.3444 0.048836 10.3728 0.0766334 10.3928C0.104431 10.4129 0.136987 10.4235 0.17027 10.4235C1.58054 10.4235 2.63898 9.68479 3.16277 9.22806C3.85854 9.51448 4.63114 9.67898 5.44865 9.67898C8.45776 9.67898 10.8973 7.51237 10.8973 4.83949C10.8973 2.1666 8.45776 0 5.44865 0ZM5.95946 7.0368V7.44536C5.95946 7.65104 5.80707 7.81763 5.61892 7.81763H5.27838C5.09023 7.81763 4.93784 7.65104 4.93784 7.44536V7.03285C4.69478 7.00143 4.46364 6.91209 4.26144 6.76621C4.12906 6.67058 4.11629 6.46118 4.22845 6.33856L4.60135 5.93093C4.68095 5.84391 4.7995 5.83228 4.90166 5.8837C4.96934 5.91767 5.04341 5.93535 5.12003 5.93535H5.81771C5.9169 5.93535 5.99735 5.8474 5.99735 5.73945C5.99735 5.6522 5.94371 5.57472 5.86709 5.55075L4.80141 5.21804C4.32785 5.07029 3.94985 4.64312 3.88812 4.10891C3.80193 3.36275 4.29316 2.72617 4.93784 2.64194V2.23361C4.93784 2.02793 5.09023 1.86134 5.27838 1.86134H5.61892C5.80707 1.86134 5.95946 2.02793 5.95946 2.23361V2.64613C6.20253 2.67754 6.43367 2.76688 6.63586 2.91277C6.76825 3.00839 6.78102 3.21779 6.66885 3.34041L6.29596 3.74804C6.21636 3.83506 6.09781 3.84669 5.99565 3.79527C5.92712 3.76102 5.85262 3.7434 5.77728 3.74362H5.07959C4.98041 3.74362 4.89996 3.83157 4.89996 3.93953C4.89996 4.02678 4.95359 4.10426 5.03021 4.12822L6.09589 4.46094C6.56946 4.60891 6.94746 5.03586 7.00918 5.57006C7.09538 6.316 6.60415 6.95258 5.95946 7.0368Z" fill="white" fill-opacity="0.4"/>
</svg>
