<svg width="12" height="12" viewBox="0 0 12 12" fill="none" xmlns="http://www.w3.org/2000/svg">
<path d="M11.2165 9.83273L9.00204 7.61831C8.90209 7.51836 8.76661 7.46283 8.62446 7.46283H8.26242C8.87544 6.67879 9.2397 5.69263 9.2397 4.61985C9.2397 2.06783 7.17187 0 4.61985 0C2.06783 0 0 2.06783 0 4.61985C0 7.17187 2.06783 9.2397 4.61985 9.2397C5.69263 9.2397 6.67879 8.87544 7.46283 8.26242V8.62446C7.46283 8.76661 7.51836 8.90209 7.61831 9.00204L9.83273 11.2165C10.0415 11.4252 10.3791 11.4252 10.5857 11.2165L11.2142 10.5879C11.423 10.3791 11.423 10.0415 11.2165 9.83273ZM4.61985 7.46283C3.04954 7.46283 1.77686 6.19237 1.77686 4.61985C1.77686 3.04954 3.04732 1.77687 4.61985 1.77687C6.19015 1.77687 7.46283 3.04732 7.46283 4.61985C7.46283 6.19015 6.19237 7.46283 4.61985 7.46283Z" fill="#8A8587"/>
</svg>
