<svg width="133" height="74" viewBox="0 0 133 74" fill="none" xmlns="http://www.w3.org/2000/svg">
<rect x="0.000228882" width="11.3711" height="60.1721" rx="3.79037" fill="#473B33"/>
<rect x="6.10352e-05" y="31.7443" width="11.3711" height="28.9016" rx="3.79037" fill="#FE6C00"/>
<path d="M2.72431 72.3168C2.54513 72.3168 2.38795 72.2728 2.25278 72.1847C2.11761 72.0936 2.0123 71.9678 1.93686 71.8075C1.86142 71.644 1.82369 71.457 1.82369 71.2464H2.17262C2.17262 71.4759 2.22292 71.6598 2.32351 71.7981C2.4241 71.9364 2.5577 72.0056 2.72431 72.0056H3.13454C3.31057 72.0056 3.44889 71.9333 3.54948 71.7887C3.65007 71.644 3.70037 71.4429 3.70037 71.1851V68.9784H4.0493V71.1851C4.0493 71.5403 3.96914 71.8185 3.80882 72.0197C3.6485 72.2177 3.42374 72.3168 3.13454 72.3168H2.72431ZM5.42674 72.3168C5.19727 72.3168 5.01337 72.257 4.87506 72.1376C4.73989 72.0181 4.6723 71.8578 4.6723 71.6566V71.5057C4.6723 71.3077 4.74303 71.1489 4.88449 71.0295C5.02595 70.91 5.21298 70.8503 5.4456 70.8503H5.74738C5.85112 70.8503 5.958 70.866 6.06802 70.8975C6.17804 70.9289 6.27235 70.9713 6.35093 71.0248V70.6334C6.35093 70.5014 6.31007 70.3945 6.22834 70.3128C6.14661 70.2279 6.03816 70.1855 5.90298 70.1855H5.52576C5.39059 70.1855 5.28214 70.2169 5.20041 70.2798C5.11868 70.3426 5.07781 70.4259 5.07781 70.5297H4.73831C4.73831 70.3379 4.81062 70.1839 4.95522 70.0676C5.09982 69.9481 5.29 69.8884 5.52576 69.8884H5.90298C6.1356 69.8884 6.32264 69.9576 6.4641 70.0959C6.6087 70.231 6.681 70.4102 6.681 70.6334V72.279H6.36037V71.949C6.28806 72.0621 6.19219 72.1517 6.07273 72.2177C5.95642 72.2838 5.8354 72.3168 5.70966 72.3168H5.42674ZM5.71909 72.0197C5.86683 72.0197 5.99886 71.9741 6.11517 71.883C6.23148 71.7918 6.31007 71.6708 6.35093 71.5199V71.3454C6.28806 71.2857 6.20005 71.2385 6.08688 71.204C5.97686 71.1662 5.86369 71.1474 5.74738 71.1474H5.4456C5.31672 71.1474 5.21141 71.1804 5.12968 71.2464C5.05109 71.3124 5.0118 71.3989 5.0118 71.5057V71.6566C5.0118 71.7666 5.04952 71.8547 5.12497 71.9207C5.20041 71.9867 5.301 72.0197 5.42674 72.0197H5.71909ZM7.36785 69.9261H7.69792V70.2751C7.77022 70.1619 7.86452 70.0692 7.98083 69.9969C8.09714 69.9245 8.21345 69.8884 8.32976 69.8884H8.6504C8.8673 69.8884 9.04177 69.9623 9.17379 70.11C9.30896 70.2578 9.37655 70.4511 9.37655 70.69V72.279H9.03705V70.6806C9.03705 70.536 9.0009 70.4181 8.9286 70.3269C8.8563 70.2358 8.76042 70.1902 8.64097 70.1902H8.33919C8.19145 70.1902 8.05628 70.2483 7.93368 70.3646C7.81423 70.481 7.73878 70.6303 7.70735 70.8126V72.279H7.36785V69.9261Z" fill="white"/>
<rect x="29.3756" width="11.3711" height="60.1721" rx="3.79037" fill="#473B33"/>
<rect x="29.3755" y="15.1615" width="11.3711" height="45.0106" rx="3.79037" fill="#FFC397"/>
<rect x="29.3755" y="24.6374" width="11.3711" height="36.0085" rx="3.79037" fill="#FE6C00"/>
<path d="M31.5105 68.9784H33.6795V69.2896H31.8594V70.4967H33.505V70.8079H31.8594V72.279H31.5105V68.9784ZM34.8023 72.3168C34.5383 72.3168 34.3261 72.2398 34.1658 72.0857C34.0055 71.9285 33.9253 71.7211 33.9253 71.4633V70.789C33.9253 70.5187 34.0055 70.3018 34.1658 70.1383C34.3261 69.9717 34.5383 69.8884 34.8023 69.8884H35.189C35.4405 69.8884 35.6432 69.9686 35.7973 70.1289C35.9513 70.2892 36.0283 70.5014 36.0283 70.7654V71.1804H34.2648V71.4633C34.2648 71.6268 34.3135 71.7604 34.411 71.8641C34.5116 71.9647 34.642 72.015 34.8023 72.015H35.1607C35.3179 72.015 35.4452 71.9726 35.5426 71.8877C35.6401 71.7997 35.6888 71.6834 35.6888 71.5387H36.0189C36.0189 71.7714 35.9403 71.96 35.7831 72.1046C35.6259 72.246 35.4185 72.3168 35.1607 72.3168H34.8023ZM35.6888 70.888V70.7654C35.6888 70.5926 35.6432 70.4542 35.5521 70.3505C35.4609 70.2436 35.3399 70.1902 35.189 70.1902H34.8023C34.642 70.1902 34.5116 70.2452 34.411 70.3552C34.3135 70.4652 34.2648 70.6098 34.2648 70.789V70.888H35.6888ZM37.5502 72.3168C37.4465 72.3168 37.3364 72.2853 37.2201 72.2225C37.1038 72.1564 37.0142 72.0747 36.9514 71.9773V72.279H36.6213V68.9784H36.9608V70.2043C37.0299 70.1069 37.118 70.0299 37.2248 69.9733C37.3349 69.9167 37.448 69.8884 37.5643 69.8884H37.8991C38.0594 69.8884 38.2009 69.9261 38.3235 70.0016C38.4492 70.0739 38.5467 70.1776 38.6158 70.3128C38.6881 70.4448 38.7243 70.5973 38.7243 70.7702V71.3784C38.7243 71.5639 38.6881 71.7274 38.6158 71.8688C38.5467 72.0103 38.4477 72.1203 38.3188 72.1989C38.193 72.2775 38.0469 72.3168 37.8803 72.3168H37.5502ZM37.8708 72.015C38.0217 72.015 38.1443 71.9568 38.2386 71.8405C38.3361 71.7211 38.3848 71.567 38.3848 71.3784V70.7702C38.3848 70.5973 38.3376 70.4574 38.2433 70.3505C38.1522 70.2436 38.0343 70.1902 37.8897 70.1902H37.5738C37.4103 70.1902 37.2704 70.2499 37.1541 70.3694C37.0378 70.4888 36.9734 70.646 36.9608 70.8409V71.4162C36.9671 71.5262 36.9985 71.6268 37.0551 71.7179C37.1117 71.8091 37.184 71.8814 37.272 71.9348C37.36 71.9883 37.4528 72.015 37.5502 72.015H37.8708Z" fill="white"/>
<rect x="59.0953" width="11.3711" height="60.1721" rx="3.79037" fill="#473B33"/>
<rect x="58.8657" y="29.3754" width="11.3711" height="31.2705" rx="3.79037" fill="#FE6C00"/>
<path d="M61.0211 68.9784H61.3559L62.5347 71.171L63.6805 68.9784H64.0153V72.279H63.6711V69.6291L62.7186 71.4397C62.6841 71.5026 62.6542 71.5466 62.629 71.5717C62.6039 71.5938 62.5756 71.6048 62.5442 71.6048H62.4404L61.3654 69.6291V72.279H61.0211V68.9784ZM65.4295 72.3168C65.2001 72.3168 65.0162 72.257 64.8779 72.1376C64.7427 72.0181 64.6751 71.8578 64.6751 71.6566V71.5057C64.6751 71.3077 64.7458 71.1489 64.8873 71.0295C65.0287 70.91 65.2158 70.8503 65.4484 70.8503H65.7502C65.8539 70.8503 65.9608 70.866 66.0708 70.8975C66.1808 70.9289 66.2751 70.9713 66.3537 71.0248V70.6334C66.3537 70.5014 66.3129 70.3945 66.2311 70.3128C66.1494 70.2279 66.041 70.1855 65.9058 70.1855H65.5286C65.3934 70.1855 65.2849 70.2169 65.2032 70.2798C65.1215 70.3426 65.0806 70.4259 65.0806 70.5297H64.7411C64.7411 70.3379 64.8134 70.1839 64.958 70.0676C65.1026 69.9481 65.2928 69.8884 65.5286 69.8884H65.9058C66.1384 69.8884 66.3254 69.9576 66.4669 70.0959C66.6115 70.231 66.6838 70.4102 66.6838 70.6334V72.279H66.3632V71.949C66.2909 72.0621 66.195 72.1517 66.0755 72.2177C65.9592 72.2838 65.8382 72.3168 65.7125 72.3168H65.4295ZM65.7219 72.0197C65.8696 72.0197 66.0017 71.9741 66.118 71.883C66.2343 71.7918 66.3129 71.6708 66.3537 71.5199V71.3454C66.2909 71.2857 66.2028 71.2385 66.0897 71.204C65.9797 71.1662 65.8665 71.1474 65.7502 71.1474H65.4484C65.3195 71.1474 65.2142 71.1804 65.1325 71.2464C65.0539 71.3124 65.0146 71.3989 65.0146 71.5057V71.6566C65.0146 71.7666 65.0523 71.8547 65.1278 71.9207C65.2032 71.9867 65.3038 72.0197 65.4295 72.0197H65.7219ZM67.3706 69.9261H67.7007V70.2892C67.7636 70.1792 67.8579 70.0896 67.9836 70.0204C68.1125 69.9513 68.2461 69.9167 68.3844 69.9167H68.5919V70.2232H68.3844C68.1832 70.2232 68.0198 70.2876 67.894 70.4165C67.7714 70.5422 67.7101 70.7104 67.7101 70.921V72.279H67.3706V69.9261Z" fill="white"/>
<rect x="88.5857" width="11.3711" height="60.1721" rx="3.79037" fill="#473B33"/>
<rect x="88.5854" y="29.3754" width="11.3711" height="31.2705" rx="3.79037" fill="#FE6C00"/>
<path d="M92.7927 71.3643H91.3452L91.0057 72.279H90.6473L91.9157 68.9784H92.076C92.1798 68.9784 92.2552 69.0412 92.3023 69.167L93.0285 71.0719H93.0332V71.0814L93.4906 72.279H93.1322L92.7927 71.3643ZM91.4536 71.0719H92.6843L92.0713 69.431H92.0666L91.4536 71.0719ZM93.9549 69.9261H94.2849V70.2468C94.3509 70.1399 94.4374 70.0534 94.5443 69.9874C94.6543 69.9214 94.7643 69.8884 94.8743 69.8884H95.2138C95.4653 69.8884 95.6681 69.9686 95.8221 70.1289C95.9793 70.2892 96.0579 70.5014 96.0579 70.7654V71.3454C96.0579 71.6378 95.9777 71.8735 95.8174 72.0527C95.6602 72.2287 95.4512 72.3168 95.1903 72.3168H94.8508C94.7533 72.3168 94.6512 72.29 94.5443 72.2366C94.4374 72.18 94.3541 72.1077 94.2944 72.0197V73.2174H93.9549V69.9261ZM95.1808 72.015C95.3443 72.015 95.4748 71.9537 95.5722 71.8311C95.6696 71.7085 95.7184 71.5466 95.7184 71.3454V70.7654C95.7184 70.5926 95.6712 70.4542 95.5769 70.3505C95.4826 70.2436 95.3584 70.1902 95.2044 70.1902H94.8743C94.7423 70.1902 94.6229 70.2421 94.516 70.3458C94.4091 70.4464 94.3352 70.5768 94.2944 70.7372V71.4444C94.3164 71.611 94.3808 71.7478 94.4877 71.8547C94.5946 71.9616 94.7219 72.015 94.8696 72.015H95.1808ZM96.6809 69.9261H97.0109V70.2892C97.0738 70.1792 97.1681 70.0896 97.2939 70.0204C97.4227 69.9513 97.5563 69.9167 97.6947 69.9167H97.9021V70.2232H97.6947C97.4935 70.2232 97.33 70.2876 97.2043 70.4165C97.0817 70.5423 97.0204 70.7104 97.0204 70.921V72.279H96.6809V69.9261Z" fill="white"/>
<rect x="119.477" y="1.52588e-05" width="11.3711" height="60.1721" rx="3.79037" fill="#473B33"/>
<rect x="119.476" y="29.3754" width="11.3711" height="31.2705" rx="3.79037" fill="#FE6C00"/>
<path d="M121.006 68.9784H121.341L122.52 71.171L123.665 68.9784H124V72.279H123.656V69.6291L122.703 71.4397C122.669 71.5026 122.639 71.5466 122.614 71.5717C122.589 71.5938 122.56 71.6048 122.529 71.6048H122.425L121.35 69.6291V72.279H121.006V68.9784ZM125.414 72.3168C125.185 72.3168 125.001 72.257 124.863 72.1376C124.727 72.0181 124.66 71.8578 124.66 71.6566V71.5057C124.66 71.3077 124.731 71.1489 124.872 71.0295C125.014 70.91 125.201 70.8503 125.433 70.8503H125.735C125.839 70.8503 125.946 70.866 126.056 70.8975C126.166 70.9289 126.26 70.9713 126.339 71.0248V70.6334C126.339 70.5014 126.298 70.3945 126.216 70.3128C126.134 70.2279 126.026 70.1855 125.891 70.1855H125.513C125.378 70.1855 125.27 70.2169 125.188 70.2798C125.106 70.3426 125.065 70.4259 125.065 70.5297H124.726C124.726 70.3379 124.798 70.1839 124.943 70.0676C125.087 69.9481 125.278 69.8884 125.513 69.8884H125.891C126.123 69.8884 126.31 69.9576 126.452 70.0959C126.596 70.231 126.669 70.4102 126.669 70.6334V72.279H126.348V71.949C126.276 72.0621 126.18 72.1517 126.06 72.2177C125.944 72.2838 125.823 72.3168 125.697 72.3168H125.414ZM125.707 72.0197C125.854 72.0197 125.986 71.9741 126.103 71.883C126.219 71.7918 126.298 71.6708 126.339 71.5199V71.3454C126.276 71.2857 126.188 71.2385 126.074 71.204C125.964 71.1662 125.851 71.1474 125.735 71.1474H125.433C125.304 71.1474 125.199 71.1804 125.117 71.2464C125.039 71.3124 124.999 71.3989 124.999 71.5057V71.6566C124.999 71.7666 125.037 71.8547 125.113 71.9207C125.188 71.9867 125.289 72.0197 125.414 72.0197H125.707ZM128.115 73.2362C127.907 73.2362 127.736 73.1797 127.601 73.0665C127.465 72.9565 127.39 72.8103 127.374 72.628H127.714C127.726 72.7223 127.769 72.7977 127.841 72.8543C127.917 72.914 128.008 72.9439 128.115 72.9439H128.482C128.646 72.9439 128.772 72.8889 128.86 72.7789C128.951 72.672 128.996 72.5211 128.996 72.3262V71.8924C128.921 72.0056 128.825 72.0983 128.709 72.1706C128.596 72.2429 128.482 72.279 128.369 72.279H128.067C127.847 72.279 127.668 72.2052 127.53 72.0574C127.395 71.9097 127.327 71.7163 127.327 71.4774V69.9261H127.667V71.4869C127.667 71.6346 127.703 71.7541 127.775 71.8452C127.851 71.9333 127.948 71.9773 128.067 71.9773H128.36C128.504 71.9773 128.638 71.9191 128.761 71.8028C128.883 71.6865 128.962 71.5403 128.996 71.3643V69.9261H129.336V72.3262C129.336 72.6122 129.26 72.8354 129.11 72.9958C128.959 73.1561 128.75 73.2362 128.482 73.2362H128.115Z" fill="white"/>
</svg>
