<svg width="63" height="63" viewBox="0 0 63 63" fill="none" xmlns="http://www.w3.org/2000/svg">
<path d="M62.778 31.389C62.778 48.7246 48.7246 62.778 31.389 62.778C14.0533 62.778 0 48.7246 0 31.389C0 14.0533 14.0533 0 31.389 0C48.7246 0 62.778 14.0533 62.778 31.389ZM10.4755 31.389C10.4755 42.9392 19.8388 52.3025 31.389 52.3025C42.9392 52.3025 52.3025 42.9392 52.3025 31.389C52.3025 19.8388 42.9392 10.4755 31.389 10.4755C19.8388 10.4755 10.4755 19.8388 10.4755 31.389Z" fill="#473B33"/>
<path d="M31.389 5.23773C31.389 2.34501 33.7499 -0.0444721 36.6025 0.435991C38.9296 0.827948 41.2105 1.48201 43.401 2.38935C47.2093 3.96679 50.6696 6.27889 53.5844 9.19363C56.4991 12.1084 58.8112 15.5687 60.3886 19.3769C61.9661 23.1852 62.778 27.2669 62.778 31.389C62.778 35.5111 61.9661 39.5928 60.3886 43.401C58.8112 47.2093 56.4991 50.6696 53.5843 53.5844C50.6696 56.4991 47.2093 58.8112 43.401 60.3886C41.2105 61.296 38.9295 61.95 36.6025 62.342C33.7499 62.8224 31.389 60.433 31.389 57.5402V57.5402C31.389 54.6475 33.7697 52.367 36.5721 51.65C37.5311 51.4047 38.4736 51.0911 39.3922 50.7106C41.9296 49.6596 44.2351 48.1191 46.1771 46.1771C48.1191 44.2351 49.6595 41.9296 50.7106 39.3923C51.7616 36.8549 52.3025 34.1354 52.3025 31.389C52.3025 28.6426 51.7616 25.9231 50.7106 23.3857C49.6596 20.8484 48.1191 18.5429 46.1771 16.6009C44.2351 14.6589 41.9296 13.1184 39.3922 12.0674C38.4736 11.6869 37.5312 11.3733 36.5722 11.1279C33.7697 10.411 31.389 8.13045 31.389 5.23773V5.23773Z" fill="#FE6C00"/>
<path d="M20.9044 37.1262C20.3137 37.1262 19.8377 36.949 19.4764 36.5946C19.115 36.2332 18.9343 35.7607 18.9343 35.177H19.6848C19.6848 35.5591 19.796 35.8649 20.0184 36.0942C20.2407 36.3235 20.5361 36.4382 20.9044 36.4382H21.905C22.3081 36.4382 22.6312 36.3201 22.8744 36.0838C23.1246 35.8406 23.2497 35.5209 23.2497 35.1248V34.4786C23.2497 34.1103 23.1211 33.8149 22.864 33.5926C22.6138 33.3702 22.2838 33.259 21.8738 33.259H19.1949V29.7463H23.75V30.4343H19.9663V32.5711H21.8738C22.52 32.5711 23.0377 32.7448 23.4269 33.0923C23.823 33.4397 24.021 33.9018 24.021 34.4786V35.1248C24.021 35.5209 23.9307 35.8719 23.75 36.1776C23.5763 36.4764 23.3296 36.7092 23.0099 36.876C22.6903 37.0428 22.322 37.1262 21.905 37.1262H20.9044ZM27.4051 37.1262C26.9881 37.1262 26.6164 37.0289 26.2897 36.8343C25.9701 36.6397 25.7199 36.3652 25.5393 36.0108C25.3586 35.6564 25.2682 35.2499 25.2682 34.7913V31.9978C25.2682 31.5391 25.3586 31.1326 25.5393 30.7782C25.7199 30.4238 25.9701 30.1493 26.2897 29.9548C26.6164 29.7602 26.9881 29.6629 27.4051 29.6629H28.51C28.9269 29.6629 29.2952 29.7602 29.6148 29.9548C29.9345 30.1493 30.1812 30.4238 30.3549 30.7782C30.5356 31.1326 30.6259 31.5391 30.6259 31.9978V34.7913C30.6259 35.2499 30.5356 35.6564 30.3549 36.0108C30.1812 36.3652 29.9345 36.6397 29.6148 36.8343C29.2952 37.0289 28.9269 37.1262 28.51 37.1262H27.4051ZM28.4891 36.4382C28.8991 36.4382 29.2292 36.2888 29.4793 35.99C29.7295 35.6842 29.8546 35.2847 29.8546 34.7913V31.9978C29.8546 31.5044 29.7295 31.1083 29.4793 30.8095C29.2292 30.5037 28.8991 30.3509 28.4891 30.3509H27.4259C27.0159 30.3509 26.6824 30.5037 26.4253 30.8095C26.1681 31.1083 26.0396 31.5044 26.0396 31.9978V34.7913C26.0396 35.2847 26.1681 35.6842 26.4253 35.99C26.6824 36.2888 27.0159 36.4382 27.4259 36.4382H28.4891ZM37.9379 29.517H38.6884L34.7691 37.3034H34.0186L37.9379 29.517ZM33.3202 34.3326C32.8964 34.3326 32.5524 34.1937 32.2883 33.9157C32.0312 33.6308 31.9026 33.259 31.9026 32.8004V31.1952C31.9026 30.7365 32.0312 30.3682 32.2883 30.0903C32.5524 29.8054 32.8964 29.6629 33.3202 29.6629H33.904C34.3279 29.6629 34.6684 29.8054 34.9255 30.0903C35.1895 30.3682 35.3216 30.7365 35.3216 31.1952V32.8004C35.3216 33.259 35.1895 33.6308 34.9255 33.9157C34.6684 34.1937 34.3279 34.3326 33.904 34.3326H33.3202ZM33.904 33.7385C34.1333 33.7385 34.3174 33.6551 34.4564 33.4883C34.5954 33.3146 34.6649 33.0853 34.6649 32.8004V31.1952C34.6649 30.9103 34.5954 30.6844 34.4564 30.5176C34.3174 30.3439 34.1333 30.2571 33.904 30.2571H33.3202C33.0909 30.2571 32.9068 30.3439 32.7678 30.5176C32.6288 30.6844 32.5593 30.9103 32.5593 31.1952V32.8004C32.5593 33.0853 32.6288 33.3146 32.7678 33.4883C32.9068 33.6551 33.0909 33.7385 33.3202 33.7385H33.904ZM38.7405 37.1262C38.3166 37.1262 37.9726 36.9872 37.7085 36.7092C37.4514 36.4243 37.3229 36.0525 37.3229 35.5939V33.9887C37.3229 33.53 37.4514 33.1617 37.7085 32.8838C37.9726 32.5989 38.3166 32.4564 38.7405 32.4564H39.3242C39.7481 32.4564 40.0886 32.5989 40.3457 32.8838C40.6098 33.1617 40.7418 33.53 40.7418 33.9887V35.5939C40.7418 36.0525 40.6098 36.4243 40.3457 36.7092C40.0886 36.9872 39.7481 37.1262 39.3242 37.1262H38.7405ZM39.3242 36.532C39.5535 36.532 39.7377 36.4486 39.8766 36.2818C40.0156 36.1081 40.0851 35.8788 40.0851 35.5939V33.9887C40.0851 33.7038 40.0156 33.4779 39.8766 33.3111C39.7377 33.1374 39.5535 33.0506 39.3242 33.0506H38.7405C38.5112 33.0506 38.327 33.1374 38.188 33.3111C38.049 33.4779 37.9796 33.7038 37.9796 33.9887V35.5939C37.9796 35.8788 38.049 36.1081 38.188 36.2818C38.327 36.4486 38.5112 36.532 38.7405 36.532H39.3242Z" fill="white"/>
</svg>
