<svg width="12" height="10" viewBox="0 0 12 10" fill="none" xmlns="http://www.w3.org/2000/svg">
<path d="M5.76585 2.38975L1.97446 5.5124V8.88265C1.97446 8.96991 2.00912 9.0536 2.07083 9.1153C2.13253 9.17701 2.21622 9.21167 2.30348 9.21167L4.60789 9.20571C4.69487 9.20527 4.77813 9.17042 4.83948 9.10876C4.90083 9.0471 4.93527 8.96366 4.93527 8.87668V6.9085C4.93527 6.82123 4.96994 6.73755 5.03164 6.67584C5.09334 6.61414 5.17703 6.57947 5.2643 6.57947H6.58039C6.66766 6.57947 6.75135 6.61414 6.81305 6.67584C6.87475 6.73755 6.90942 6.82123 6.90942 6.9085V8.87524C6.90928 8.91854 6.91769 8.96143 6.93417 9.00147C6.95064 9.04151 6.97486 9.0779 7.00542 9.10857C7.03599 9.13923 7.07231 9.16355 7.11229 9.18015C7.15228 9.19675 7.19515 9.2053 7.23844 9.2053L9.54203 9.21167C9.62929 9.21167 9.71298 9.17701 9.77469 9.1153C9.83639 9.0536 9.87105 8.96991 9.87105 8.88265V5.51014L6.08048 2.38975C6.03592 2.35383 5.9804 2.33424 5.92317 2.33424C5.86593 2.33424 5.81042 2.35383 5.76585 2.38975ZM11.7547 4.51217L10.0356 3.0951V0.246769C10.0356 0.181322 10.0096 0.118555 9.96329 0.0722769C9.91701 0.0259988 9.85425 0 9.7888 0H8.63721C8.57176 0 8.509 0.0259988 8.46272 0.0722769C8.41644 0.118555 8.39044 0.181322 8.39044 0.246769V1.73993L6.54934 0.225176C6.37266 0.0797843 6.15095 0.000290641 5.92214 0.000290641C5.69333 0.000290641 5.47162 0.0797843 5.29494 0.225176L0.0895562 4.51217C0.0645683 4.53282 0.0438948 4.55819 0.0287169 4.58684C0.0135389 4.61549 0.0041541 4.64684 0.00109856 4.67912C-0.00195697 4.71139 0.00137669 4.74395 0.0109091 4.77494C0.0204414 4.80592 0.0359857 4.83472 0.0566537 4.8597L0.581037 5.49719C0.601649 5.52225 0.627001 5.543 0.655643 5.55825C0.684285 5.5735 0.715654 5.58296 0.747954 5.58607C0.780254 5.58918 0.812851 5.5859 0.843879 5.5764C0.874906 5.5669 0.903756 5.55137 0.928775 5.5307L5.76585 1.54662C5.81042 1.5107 5.86593 1.49111 5.92317 1.49111C5.9804 1.49111 6.03592 1.5107 6.08048 1.54662L10.9178 5.5307C10.9427 5.55137 10.9715 5.56692 11.0025 5.57645C11.0335 5.58598 11.0661 5.58932 11.0983 5.58626C11.1306 5.5832 11.162 5.57382 11.1906 5.55864C11.2193 5.54346 11.2446 5.52279 11.2653 5.4978L11.7897 4.86032C11.8103 4.8352 11.8258 4.80624 11.8352 4.77512C11.8446 4.744 11.8478 4.71133 11.8446 4.67897C11.8413 4.64662 11.8317 4.61523 11.8163 4.5866C11.8009 4.55798 11.78 4.53268 11.7547 4.51217Z" fill="white"/>
</svg>
