<svg width="8" height="8" viewBox="0 0 8 8" fill="none" xmlns="http://www.w3.org/2000/svg">
<path d="M2.51685 4.33078C2.51685 4.29006 2.55017 4.25674 2.59088 4.25674H2.91662C2.95733 4.25674 2.99065 4.29006 2.99065 4.33078V5.5967H5.61873V4.16791C5.61873 3.15813 4.79996 2.33935 3.79018 2.33935C2.7804 2.33935 1.96162 3.15813 1.96162 4.16791V5.5967H2.51685V4.33078Z" fill="#492419"/>
<path d="M1.60561 2.29865L1.89878 2.00548C1.92173 1.98253 1.92173 1.94478 1.89878 1.92183L1.39611 1.41916C1.38498 1.40814 1.36995 1.40196 1.35428 1.40196C1.33862 1.40196 1.32358 1.40814 1.31245 1.41916L1.01929 1.71232C1.00827 1.72345 1.00209 1.73849 1.00209 1.75415C1.00209 1.76981 1.00827 1.78485 1.01929 1.79598L1.52196 2.29865C1.54491 2.32159 1.58193 2.32159 1.60561 2.29865ZM6.56271 1.71232L6.26954 1.41916C6.25841 1.40814 6.24338 1.40196 6.22772 1.40196C6.21205 1.40196 6.19702 1.40814 6.18589 1.41916L5.68322 1.92183C5.6722 1.93296 5.66602 1.94799 5.66602 1.96366C5.66602 1.97932 5.6722 1.99435 5.68322 2.00548L5.97638 2.29865C5.99933 2.32159 6.03709 2.32159 6.06004 2.29865L6.56271 1.79598C6.58566 1.77229 6.58566 1.73527 6.56271 1.71232ZM3.58297 1.33255H3.99754C4.03012 1.33255 4.05677 1.30589 4.05677 1.27332V0.562627C4.05677 0.530054 4.03012 0.503403 3.99754 0.503403H3.58297C3.5504 0.503403 3.52375 0.530054 3.52375 0.562627V1.27332C3.52375 1.30589 3.5504 1.33255 3.58297 1.33255ZM6.15924 6.60353H1.42128C1.29024 6.60353 1.18438 6.70939 1.18438 6.84042V7.0181C1.18438 7.05067 1.21103 7.07732 1.24361 7.07732H6.33691C6.36949 7.07732 6.39614 7.05067 6.39614 7.0181V6.84042C6.39614 6.70939 6.29027 6.60353 6.15924 6.60353ZM1.42868 5.89283C1.42868 6.02387 1.53455 6.12973 1.66558 6.12973H5.91494C6.04597 6.12973 6.15184 6.02387 6.15184 5.89283V4.16792C6.15184 2.8635 5.09468 1.80634 3.79026 1.80634C2.48584 1.80634 1.42868 2.8635 1.42868 4.16792V5.89283ZM1.9617 4.16792C1.9617 3.15814 2.78048 2.33936 3.79026 2.33936C4.80004 2.33936 5.61882 3.15814 5.61882 4.16792V5.59671H2.99073V4.33079C2.99073 4.29007 2.95741 4.25676 2.9167 4.25676H2.59096C2.55025 4.25676 2.51693 4.29007 2.51693 4.33079V5.59671H1.9617V4.16792Z" fill="#FE2E00"/>
</svg>
