<svg width="11" height="8" viewBox="0 0 11 8" fill="none" xmlns="http://www.w3.org/2000/svg">
<path d="M10.5764 0.380052C9.91588 0.104743 9.2549 2.03522e-08 8.59426 2.03522e-08C6.49708 -0.000169192 4.40006 1.05487 2.30287 1.05487C1.77691 1.05487 1.2513 0.988542 0.725341 0.822713C0.666258 0.8041 0.607005 0.7953 0.549113 0.7953C0.256083 0.7953 0 1.02069 0 1.33357V6.70201C0 6.91573 0.123104 7.11828 0.320784 7.20051C0.981253 7.47599 1.64223 7.58074 2.30287 7.58074C4.40006 7.58074 6.49725 6.52569 8.59443 6.52569C9.12039 6.52569 9.64601 6.59203 10.172 6.75785C10.231 6.77647 10.2903 6.78527 10.3482 6.78527C10.6412 6.78527 10.8973 6.55987 10.8973 6.247V0.878722C10.8971 0.664837 10.774 0.462459 10.5764 0.380052ZM0.817285 1.69585C1.15986 1.78113 1.51743 1.82395 1.8852 1.84696C1.78509 2.34427 1.34512 2.71908 0.817285 2.71908V1.69585ZM0.817285 6.51842V5.70992C1.4025 5.70992 1.87601 6.17136 1.90206 6.74889C1.51845 6.71826 1.15986 6.64211 0.817285 6.51842ZM5.44857 5.41481C4.69615 5.41481 4.08643 4.68737 4.08643 3.79037C4.08643 2.8932 4.69632 2.16592 5.44857 2.16592C6.20081 2.16592 6.81071 2.8932 6.81071 3.79037C6.81071 4.6877 6.20064 5.41481 5.44857 5.41481ZM10.0799 5.88488C9.78154 5.8106 9.47182 5.76897 9.15496 5.74207C9.2549 5.30076 9.62319 4.96572 10.0799 4.90819V5.88488ZM10.0799 1.8896C9.55389 1.82344 9.14576 1.38704 9.12959 0.848095C9.46229 0.884814 9.77814 0.953514 10.0799 1.06232V1.8896Z" fill="white" fill-opacity="0.4"/>
</svg>
