<svg width="11" height="8" viewBox="0 0 11 8" fill="none" xmlns="http://www.w3.org/2000/svg">
<path d="M10.5568 6.31728H1.36216V0.315864C1.36216 0.141349 1.20977 0 1.02162 0H0.340541C0.152392 0 0 0.141349 0 0.315864V6.94901C0 7.29784 0.304997 7.58074 0.681082 7.58074H10.5568C10.7449 7.58074 10.8973 7.43939 10.8973 7.26487V6.63314C10.8973 6.45863 10.7449 6.31728 10.5568 6.31728ZM9.87568 0.631728H7.36292C6.90787 0.631728 6.67992 1.14205 7.00173 1.44054L7.69133 2.08016L6.12973 3.52879L4.56814 2.08036C4.30209 1.83359 3.87089 1.83359 3.60505 2.08036L2.14307 3.4364C2.01004 3.55979 2.01004 3.75977 2.14307 3.88315L2.62451 4.32971C2.75753 4.45309 2.97313 4.45309 3.10616 4.32971L4.08649 3.42021L5.64808 4.86865C5.91413 5.11542 6.34534 5.11542 6.61117 4.86865L8.65442 2.97346L9.34401 3.61309C9.66583 3.91158 10.216 3.70015 10.216 3.27808V0.947592C10.2162 0.773077 10.0638 0.631728 9.87568 0.631728Z" fill="white" fill-opacity="0.4"/>
</svg>
