<svg width="11" height="9" viewBox="0 0 11 9" fill="none" xmlns="http://www.w3.org/2000/svg">
<path d="M9.81609 1.92903H1.7027C1.51456 1.92903 1.36216 1.78515 1.36216 1.60752C1.36216 1.42989 1.51456 1.28602 1.7027 1.28602H9.87568C10.0638 1.28602 10.2162 1.14214 10.2162 0.964513C10.2162 0.431821 9.75884 0 9.1946 0H1.36216C0.609781 0 0 0.575694 0 1.28602V7.71611C0 8.42643 0.609781 9.00212 1.36216 9.00212H9.81609C10.4125 9.00212 10.8973 8.5695 10.8973 8.03761V2.89354C10.8973 2.36165 10.4125 1.92903 9.81609 1.92903ZM8.85406 6.10858C8.47798 6.10858 8.17298 5.82064 8.17298 5.46558C8.17298 5.11051 8.47798 4.82257 8.85406 4.82257C9.23015 4.82257 9.53514 5.11051 9.53514 5.46558C9.53514 5.82064 9.23015 6.10858 8.85406 6.10858Z" fill="white" fill-opacity="0.4"/>
</svg>
