<svg width="12" height="12" viewBox="0 0 12 12" fill="none" xmlns="http://www.w3.org/2000/svg">
<path d="M11.2259 7.05191L10.2057 6.48795C10.3086 5.95607 10.3086 5.41045 10.2057 4.87857L11.2259 4.31461C11.3432 4.25041 11.3959 4.11745 11.3576 3.99365C11.0918 3.1775 10.6391 2.4393 10.0476 1.82489C9.95661 1.7309 9.80813 1.70797 9.69318 1.77216L8.67299 2.33613C8.24431 1.98308 7.75098 1.71027 7.21693 1.53145V0.405803C7.21693 0.27742 7.12354 0.165085 6.99182 0.137575C6.11292 -0.0504147 5.21247 -0.0412445 4.37668 0.137575C4.24496 0.165085 4.15157 0.27742 4.15157 0.405803V1.53374C3.61992 1.71485 3.12658 1.98766 2.69552 2.33842L1.67772 1.77446C1.56037 1.71027 1.41429 1.7309 1.32328 1.82719C0.731764 2.4393 0.279143 3.1775 0.0133181 3.99594C-0.0273939 4.11974 0.027687 4.25271 0.145033 4.3169L1.16523 4.88087C1.06225 5.41274 1.06225 5.95837 1.16523 6.49024L0.145033 7.0542C0.027687 7.1184 -0.0249991 7.25136 0.0133181 7.37516C0.279143 8.19131 0.731764 8.92951 1.32328 9.54392C1.41429 9.63791 1.56277 9.66084 1.67772 9.59665L2.69791 9.03268C3.12658 9.38573 3.61992 9.65855 4.15396 9.83736V10.9653C4.15396 11.0937 4.24736 11.206 4.37907 11.2335C5.25797 11.4215 6.15842 11.4123 6.99422 11.2335C7.12593 11.206 7.21933 11.0937 7.21933 10.9653V9.83736C7.75098 9.65625 8.24431 9.38344 8.67538 9.03268L9.69557 9.59665C9.81292 9.66084 9.959 9.6402 10.05 9.54392C10.6415 8.93181 11.0941 8.1936 11.36 7.37516C11.3959 7.24907 11.3432 7.1161 11.2259 7.05191ZM5.68425 7.5173C4.62814 7.5173 3.7684 6.69427 3.7684 5.68326C3.7684 4.67224 4.62814 3.84922 5.68425 3.84922C6.74037 3.84922 7.60011 4.67224 7.60011 5.68326C7.60011 6.69427 6.74037 7.5173 5.68425 7.5173Z" fill="white" fill-opacity="0.4"/>
</svg>
