<svg width="11" height="9" viewBox="0 0 11 9" fill="none" xmlns="http://www.w3.org/2000/svg">
<path d="M0 7.61458C0 8.11904 0.406757 8.52833 0.908109 8.52833H9.9892C10.4906 8.52833 10.8973 8.11904 10.8973 7.61458V4.26416H0V7.61458ZM3.63244 6.3201C3.63244 6.19446 3.7346 6.09166 3.85946 6.09166H6.43244C6.5573 6.09166 6.65947 6.19446 6.65947 6.3201V7.08156C6.65947 7.2072 6.5573 7.31 6.43244 7.31H3.85946C3.7346 7.31 3.63244 7.2072 3.63244 7.08156V6.3201ZM1.21081 6.3201C1.21081 6.19446 1.31297 6.09166 1.43784 6.09166H2.8C2.92487 6.09166 3.02703 6.19446 3.02703 6.3201V7.08156C3.02703 7.2072 2.92487 7.31 2.8 7.31H1.43784C1.31297 7.31 1.21081 7.2072 1.21081 7.08156V6.3201ZM10.8973 0.913749V1.8275H0V0.913749C0 0.409284 0.406757 0 0.908109 0H9.9892C10.4906 0 10.8973 0.409284 10.8973 0.913749Z" fill="white" fill-opacity="0.4"/>
</svg>
