<svg width="34" height="37" viewBox="0 0 34 37" fill="none" xmlns="http://www.w3.org/2000/svg">
<path d="M16.6667 0C25.8717 0 33.3333 7.46167 33.3333 16.6667C33.3333 25.8717 25.8717 33.3333 16.6667 33.3333C7.46167 33.3333 0 25.8717 0 16.6667C0 7.46167 7.46167 0 16.6667 0ZM16.6667 3.33333C13.1304 3.33333 9.73906 4.73809 7.23858 7.23858C4.73809 9.73906 3.33333 13.1304 3.33333 16.6667C3.33333 20.2029 4.73809 23.5943 7.23858 26.0948C9.73906 28.5952 13.1304 30 16.6667 30C20.2029 30 23.5943 28.5952 26.0948 26.0948C28.5952 23.5943 30 20.2029 30 16.6667C30 13.1304 28.5952 9.73906 26.0948 7.23858C23.5943 4.73809 20.2029 3.33333 16.6667 3.33333ZM16.6667 6.66667C17.0749 6.66672 17.4689 6.81659 17.774 7.08786C18.079 7.35912 18.2739 7.73291 18.3217 8.13833L18.3333 8.33333V15.9767L22.845 20.4883C23.1439 20.7883 23.3175 21.1907 23.3304 21.614C23.3433 22.0372 23.1946 22.4495 22.9146 22.7671C22.6345 23.0847 22.2441 23.2838 21.8225 23.324C21.401 23.3642 20.98 23.2424 20.645 22.9833L20.4883 22.845L15.4883 17.845C15.2293 17.5857 15.0629 17.2483 15.015 16.885L15 16.6667V8.33333C15 7.89131 15.1756 7.46738 15.4882 7.15482C15.8007 6.84226 16.2246 6.66667 16.6667 6.66667Z" fill="black"/>
</svg>
