<svg width="100" height="100" viewBox="0 0 100 100" fill="none" xmlns="http://www.w3.org/2000/svg">
<path d="M50 8.33337C73.0125 8.33337 91.6667 26.9875 91.6667 50C91.6667 73.0125 73.0125 91.6667 50 91.6667C26.9875 91.6667 8.33333 73.0125 8.33333 50C8.33333 26.9875 26.9875 8.33337 50 8.33337ZM50 16.6667C41.1594 16.6667 32.681 20.1786 26.4298 26.4298C20.1786 32.681 16.6667 41.1595 16.6667 50C16.6667 58.8406 20.1786 67.3191 26.4298 73.5703C32.681 79.8215 41.1594 83.3334 50 83.3334C58.8405 83.3334 67.319 79.8215 73.5702 73.5703C79.8214 67.3191 83.3333 58.8406 83.3333 50C83.3333 41.1595 79.8214 32.681 73.5702 26.4298C67.319 20.1786 58.8405 16.6667 50 16.6667ZM50 25C51.0206 25.0002 52.0056 25.3749 52.7682 26.053C53.5309 26.7312 54.0181 27.6657 54.1375 28.6792L54.1667 29.1667V48.275L65.4458 59.5542C66.1931 60.304 66.627 61.3102 66.6593 62.3683C66.6916 63.4264 66.3199 64.4572 65.6198 65.2512C64.9197 66.0452 63.9435 66.543 62.8897 66.6434C61.8358 66.7438 60.7833 66.4393 59.9458 65.7917L59.5542 65.4459L47.0542 52.9459C46.4066 52.2977 45.9907 51.4542 45.8708 50.5459L45.8333 50V29.1667C45.8333 28.0616 46.2723 27.0018 47.0537 26.2204C47.8351 25.439 48.8949 25 50 25Z" fill="#F97415"/>
</svg>
