<svg width="46" height="40" viewBox="0 0 46 40" fill="none" xmlns="http://www.w3.org/2000/svg">
<path d="M4.6 40C3.335 40 2.25247 39.5108 1.3524 38.5325C0.452333 37.5542 0.00153333 36.3767 0 35V5C0 3.625 0.4508 2.44833 1.3524 1.47C2.254 0.491666 3.33653 0.00166667 4.6 0H41.4C42.665 0 43.7483 0.49 44.6499 1.47C45.5515 2.45 46.0015 3.62667 46 5V35C46 36.375 45.55 37.5525 44.6499 38.5325C43.7498 39.5125 42.6665 40.0017 41.4 40H4.6ZM23 22.5L4.6 10V35H41.4V10L23 22.5ZM23 17.5L41.4 5H4.6L23 17.5ZM4.6 10V5V35V10Z" fill="#F97415"/>
</svg>
