<svg width="68" height="76" viewBox="0 0 68 76" fill="none" xmlns="http://www.w3.org/2000/svg">
<path d="M21.0859 33.834L29.4199 42.166L46.0859 25.5" stroke="#344054" stroke-linecap="round" stroke-linejoin="round"/>
<path d="M33.5859 75.5L37.2519 73.916C44.9385 70.6175 51.5761 65.2787 56.4457 58.4779C61.3154 51.677 64.2314 43.6734 64.8779 35.334L66.6699 12.334C66.6991 11.3815 66.4004 10.4478 65.8238 9.68916C65.2471 8.93049 64.4275 8.39279 63.5019 8.166L33.5859 0.5L3.6699 8C2.74467 8.22672 1.92529 8.76412 1.34867 9.52238C0.772057 10.2806 0.473148 11.2138 0.501896 12.166L2.2939 35.166C2.94008 43.5058 5.85591 51.5098 10.7255 58.311C15.5952 65.1122 22.233 70.4513 29.9199 73.75L33.5859 75.5Z" stroke="#306CFE" stroke-linecap="round" stroke-linejoin="round"/>
</svg>
