<svg width="40" height="43" viewBox="0 0 40 43" fill="none" xmlns="http://www.w3.org/2000/svg">
<path fill-rule="evenodd" clip-rule="evenodd" d="M0.0713006 15.8276C0.474238 11.5143 2.69479 7.49271 6.29232 4.5608C9.88985 1.6289 14.6014 0.000948323 19.4921 0H20.5079C25.3986 0.000948323 30.1102 1.6289 33.7077 4.5608C37.3052 7.49271 39.5258 11.5143 39.9287 15.8276C40.3769 20.6325 38.6994 25.4037 35.2498 29.1354L23.9806 41.3302C23.4983 41.8521 22.891 42.2726 22.2026 42.5614C21.5142 42.8502 20.7618 43 20 43C19.2382 43 18.4858 42.8502 17.7974 42.5614C17.109 42.2726 16.5017 41.8521 16.0194 41.3302L4.75017 29.1354C1.30058 25.4037 -0.376913 20.6325 0.0713006 15.8276ZM19.4921 3.12099C15.4872 3.12248 11.6291 4.45603 8.68326 6.85711C5.73742 9.2582 3.91899 12.5514 3.58868 16.0835C3.21551 20.0823 4.61146 24.0531 7.48226 27.1588L18.7515 39.3556C18.903 39.5197 19.0938 39.6519 19.3102 39.7427C19.5265 39.8335 19.7629 39.8806 20.0024 39.8806C20.2418 39.8806 20.4782 39.8335 20.6946 39.7427C20.9109 39.6519 21.1017 39.5197 21.2532 39.3556L32.5224 27.1588C35.3916 24.0525 36.7858 20.0817 36.4113 16.0835C36.081 12.551 34.2622 9.25754 31.3159 6.85641C28.3695 4.45528 24.5109 3.12196 20.5055 3.12099H19.4921Z" fill="#F97415"/>
</svg>
