<svg width="36" height="36" viewBox="0 0 36 36" fill="none" xmlns="http://www.w3.org/2000/svg">
<path d="M14.5861 21.4139L35 1M14.5861 21.4139L21.0814 34.4045C21.1629 34.5822 21.2936 34.7328 21.4581 34.8383C21.6226 34.9439 21.8139 35 22.0094 35C22.2048 35 22.3961 34.9439 22.5606 34.8383C22.7251 34.7328 22.8558 34.5822 22.9373 34.4045L35 1M14.5861 21.4139L1.59547 14.9186C1.4178 14.8371 1.26723 14.7064 1.16167 14.5419C1.05611 14.3774 1 14.1861 1 13.9906C1 13.7952 1.05611 13.6039 1.16167 13.4394C1.26723 13.2749 1.4178 13.1442 1.59547 13.0627L35 1" stroke="white" stroke-width="2" stroke-linecap="round" stroke-linejoin="round"/>
</svg>
