<svg width="27" height="35" viewBox="0 0 27 35" fill="none" xmlns="http://www.w3.org/2000/svg">
<path d="M8.33514 13.3346C8.3524 12.0139 8.88473 10.7521 9.8187 9.81818C10.7527 8.88421 12.0144 8.35188 13.3351 8.33462C14.6559 8.35188 15.9176 8.88421 16.8516 9.81818C17.7855 10.7521 18.3179 12.0139 18.3351 13.3346C18.3179 14.6553 17.7855 15.9171 16.8516 16.8511C15.9176 17.785 14.6559 18.3174 13.3351 18.3346C12.0144 18.3174 10.7527 17.785 9.8187 16.8511C8.88473 15.9171 8.3524 14.6553 8.33514 13.3346ZM13.3351 28.3346L20.0018 30.0013V24.868C17.9913 26.0787 15.6818 26.7023 13.3351 26.6679C10.9884 26.7023 8.67901 26.0787 6.66847 24.868V30.0013M13.3351 3.33462C12.0218 3.31065 10.7173 3.55555 9.50209 4.05427C8.28683 4.55298 7.18641 5.29497 6.26847 6.23462C5.31866 7.15356 4.56809 8.25812 4.06345 9.47957C3.55882 10.701 3.3109 12.0132 3.33514 13.3346C3.31777 14.6476 3.56902 15.9503 4.07346 17.1627C4.57789 18.375 5.32486 19.4715 6.26847 20.3846C7.18213 21.3333 8.28063 22.0846 9.49609 22.592C10.7115 23.0994 12.0181 23.3521 13.3351 23.3346C14.6521 23.3521 15.9587 23.0994 17.1742 22.592C18.3896 22.0846 19.4881 21.3333 20.4018 20.3846C21.3454 19.4715 22.0924 18.375 22.5968 17.1627C23.1013 15.9503 23.3525 14.6476 23.3351 13.3346C23.3594 12.0132 23.1115 10.701 22.6068 9.47957C22.1022 8.25812 21.3516 7.15356 20.4018 6.23462C19.4839 5.29497 18.3834 4.55298 17.1682 4.05427C15.9529 3.55555 14.6485 3.31065 13.3351 3.33462ZM26.6685 13.3346C26.6344 14.9346 26.3126 16.5153 25.7185 18.0013C25.1858 19.5143 24.3778 20.9157 23.3351 22.1346V35.0013L13.3351 31.6679L3.33514 35.0013V22.1346C1.17795 19.712 -0.00902699 16.5784 0.00180502 13.3346C-0.0275698 11.5856 0.301867 9.8491 0.969776 8.23236C1.63769 6.61562 2.62989 5.15294 3.88514 3.93462C5.10798 2.66811 6.57741 1.66567 8.20274 0.989165C9.82808 0.31266 11.5748 -0.0235521 13.3351 0.00128198C15.0955 -0.0235521 16.8422 0.31266 18.4675 0.989165C20.0929 1.66567 21.5623 2.66811 22.7851 3.93462C24.0404 5.15294 25.0326 6.61562 25.7005 8.23236C26.3684 9.8491 26.6978 11.5856 26.6685 13.3346Z" fill="black"/>
</svg>
