<svg width="37" height="24" viewBox="0 0 37 24" fill="none" xmlns="http://www.w3.org/2000/svg">
<path d="M25 10C27.7667 10 29.9833 7.76667 29.9833 5C29.9833 2.23333 27.7667 0 25 0C22.2333 0 20 2.23333 20 5C20 7.76667 22.2333 10 25 10ZM11.6667 10C14.4333 10 16.65 7.76667 16.65 5C16.65 2.23333 14.4333 0 11.6667 0C8.9 0 6.66667 2.23333 6.66667 5C6.66667 7.76667 8.9 10 11.6667 10ZM11.6667 13.3333C7.78333 13.3333 0 15.2833 0 19.1667V23.3333H23.3333V19.1667C23.3333 15.2833 15.55 13.3333 11.6667 13.3333ZM25 13.3333C24.5167 13.3333 23.9667 13.3667 23.3833 13.4167C25.3167 14.8167 26.6667 16.7 26.6667 19.1667V23.3333H36.6667V19.1667C36.6667 15.2833 28.8833 13.3333 25 13.3333Z" fill="#F97415"/>
</svg>
