<svg width="40" height="40" viewBox="0 0 40 40" fill="none" xmlns="http://www.w3.org/2000/svg">
<path d="M4.23769 3.93715H13.0764L15.9249 11.0594L11.348 14.1107C11.0785 14.2906 10.8575 14.5341 10.7047 14.8198C10.5519 15.1056 10.472 15.4246 10.472 15.7486C10.4779 15.9336 10.472 15.7506 10.472 15.7506V15.7919C10.473 15.8799 10.477 15.9679 10.4838 16.0557C10.4943 16.2184 10.5173 16.435 10.5527 16.7053C10.6295 17.2368 10.7771 17.9691 11.0646 18.8314C11.6433 20.5637 12.7772 22.8059 14.9859 25.0147C17.1946 27.2234 19.4367 28.3573 21.1671 28.9361C22.0312 29.2235 22.7616 29.3691 23.297 29.4479C23.599 29.4918 23.9034 29.5181 24.2084 29.5266L24.234 29.5286H24.2498C24.2498 29.5286 24.4703 29.5168 24.2517 29.5286C24.6172 29.5284 24.9754 29.4265 25.2863 29.2342C25.5971 29.0419 25.8482 28.7669 26.0116 28.44L27.3305 25.8021L36.0629 27.2588V35.7631C31.9074 36.3635 20.6828 36.956 11.8638 28.1368C3.04476 19.3176 3.63532 8.09084 4.23769 3.93715ZM14.5528 16.7053L18.1099 14.3351C18.8614 13.8339 19.4177 13.0895 19.6854 12.2267C19.9531 11.364 19.9161 10.4354 19.5804 9.59679L16.732 2.4745C16.4397 1.74397 15.9352 1.11778 15.2836 0.67672C14.632 0.235656 13.8632 -5.27449e-05 13.0764 8.85311e-09H4.13532C2.34593 8.85311e-09 0.662833 1.24217 0.369522 3.18318C-0.299779 7.59672 -1.20727 20.6326 9.08027 30.9204C19.3678 41.2081 32.4034 40.2987 36.8169 39.6313C38.7579 39.336 40 37.6549 40 35.8654V27.2588C40.0001 26.3268 39.6696 25.425 39.0673 24.7138C38.465 24.0026 37.6299 23.5282 36.7106 23.3748L27.9782 21.9201C27.1476 21.7814 26.2945 21.9127 25.5441 22.2947C24.7937 22.6766 24.1855 23.2891 23.8088 24.0422L23.1277 25.4064C22.887 25.3465 22.6486 25.2776 22.4131 25.1997C21.1926 24.7942 19.4977 23.9595 17.7694 22.2311C16.041 20.5027 15.2063 18.8077 14.8008 17.5853C14.7052 17.2959 14.6231 17.0023 14.5548 16.7053H14.5528Z" fill="#F97415"/>
</svg>
