<svg width="31" height="32" viewBox="0 0 31 32" fill="none" xmlns="http://www.w3.org/2000/svg">
<path d="M5.32996 11C5.32996 13.6522 6.38352 16.1957 8.25889 18.0711C10.1343 19.9464 12.6778 21 15.33 21C17.9821 21 20.5257 19.9464 22.401 18.0711C24.2764 16.1957 25.33 13.6522 25.33 11C25.33 8.34783 24.2764 5.8043 22.401 3.92893C20.5257 2.05357 17.9821 1 15.33 1C12.6778 1 10.1343 2.05357 8.25889 3.92893C6.38352 5.8043 5.32996 8.34783 5.32996 11Z" stroke="black" stroke-width="2" stroke-linecap="round" stroke-linejoin="round"/>
<path d="M15.33 21L20.9967 30.8167L23.66 25.4283L29.6567 25.815L23.99 16M6.66667 16L1 25.8167L6.99667 25.4283L9.66 30.815L15.3267 21" stroke="black" stroke-width="2" stroke-linecap="round" stroke-linejoin="round"/>
</svg>
