<svg width="50" height="50" viewBox="0 0 50 50" fill="none" xmlns="http://www.w3.org/2000/svg">
<path d="M19.8729 31.7292C16.5424 31.7292 13.7194 30.5723 11.4042 28.2584C9.09028 25.9459 7.93333 23.1237 7.93333 19.7917C7.93333 16.4598 9.09028 13.6369 11.4042 11.323C13.7181 9.00911 16.541 7.85286 19.8729 7.85425C23.2049 7.85564 26.0271 9.01258 28.3396 11.3251C30.6521 13.6376 31.809 16.4598 31.8104 19.7917C31.8104 21.239 31.5542 22.6397 31.0417 23.9938C30.5292 25.348 29.8556 26.5063 29.0208 27.4688L41.3312 39.7751C41.5257 39.9695 41.6299 40.2091 41.6437 40.4938C41.6562 40.7758 41.5521 41.0279 41.3312 41.2501C41.109 41.4723 40.8632 41.5834 40.5938 41.5834C40.3243 41.5834 40.0785 41.4723 39.8562 41.2501L27.5479 28.9417C26.5062 29.8292 25.3083 30.5161 23.9542 31.0022C22.6 31.4883 21.2389 31.7313 19.8708 31.7313M19.8708 29.648C22.6347 29.648 24.9688 28.6966 26.8729 26.7938C28.7757 24.8911 29.7271 22.557 29.7271 19.7917C29.7271 17.0265 28.7764 14.6931 26.875 12.7917C24.9736 10.8904 22.6403 9.93897 19.875 9.93758C17.1097 9.93758 14.7757 10.889 12.8729 12.7917C10.9701 14.6945 10.0181 17.0279 10.0167 19.7917C10.0153 22.5556 10.9667 24.889 12.8708 26.7917C14.775 28.6945 17.1083 29.6459 19.8708 29.6459" fill="black" fill-opacity="0.5"/>
</svg>
