<svg width="40" height="40" viewBox="0 0 40 40" fill="none" xmlns="http://www.w3.org/2000/svg">
<path d="M20 27.1668L13.8333 31.8751C13.5278 32.1251 13.1944 32.2434 12.8333 32.2301C12.4722 32.2168 12.1528 32.1123 11.875 31.9168C11.5972 31.7212 11.3822 31.4573 11.23 31.1251C11.0778 30.7929 11.0706 30.4318 11.2083 30.0418L13.5833 22.3334L7.54167 18.0418C7.20834 17.8195 7 17.5279 6.91667 17.1668C6.83334 16.8056 6.84723 16.4723 6.95834 16.1668C7.06945 15.8612 7.26389 15.5901 7.54167 15.3534C7.81945 15.1168 8.15278 14.999 8.54167 15.0001H16L18.4167 7.00009C18.5556 6.6112 18.7711 6.31231 19.0633 6.10342C19.3556 5.89453 19.6678 5.79065 20 5.79176C20.3322 5.79287 20.645 5.89731 20.9383 6.10509C21.2317 6.31287 21.4467 6.6112 21.5833 7.00009L24 15.0001H31.4583C31.8472 15.0001 32.1806 15.1184 32.4583 15.3551C32.7361 15.5918 32.9306 15.8623 33.0417 16.1668C33.1528 16.4712 33.1667 16.8045 33.0833 17.1668C33 17.529 32.7917 17.8206 32.4583 18.0418L26.4167 22.3334L28.7917 30.0418C28.9306 30.4306 28.9239 30.7918 28.7717 31.1251C28.6194 31.4584 28.4039 31.7223 28.125 31.9168C27.8461 32.1112 27.5267 32.2156 27.1667 32.2301C26.8067 32.2445 26.4733 32.1262 26.1667 31.8751L20 27.1668Z" fill="black"/>
</svg>
