<svg width="88" height="59" viewBox="0 0 88 59" fill="none" xmlns="http://www.w3.org/2000/svg">
<path d="M18.75 37.5C21.1514 37.4995 23.4791 38.3287 25.3394 39.8473C27.1996 41.3658 28.4781 43.4805 28.9583 45.8333H58.3333V4.16667H12.5C10.2899 4.16667 8.17025 5.04464 6.60744 6.60744C5.04464 8.17025 4.16667 10.2899 4.16667 12.5V45.8333H8.54167C9.02194 43.4805 10.3004 41.3658 12.1606 39.8473C14.0209 38.3287 16.3486 37.4995 18.75 37.5ZM18.75 58.3333C16.3486 58.3338 14.0209 57.5046 12.1606 55.9861C10.3004 54.4675 9.02194 52.3528 8.54167 50H0V12.5C0 9.18479 1.31696 6.00537 3.66116 3.66117C6.00537 1.31696 9.18479 0 12.5 0H58.3333C59.4384 0 60.4982 0.438988 61.2796 1.22039C62.061 2.00179 62.5 3.0616 62.5 4.16667V12.5H75L87.5 29.1667V50H78.9583C78.4802 52.3548 77.2026 54.4718 75.3422 55.9925C73.4818 57.5131 71.1528 58.3438 68.75 58.3438C66.3472 58.3438 64.0182 57.5131 62.1578 55.9925C60.2973 54.4718 59.0198 52.3548 58.5417 50H28.9583C28.4781 52.3528 27.1996 54.4675 25.3394 55.9861C23.4791 57.5046 21.1514 58.3338 18.75 58.3333ZM18.75 41.6667C17.0924 41.6667 15.5027 42.3251 14.3306 43.4972C13.1585 44.6693 12.5 46.2591 12.5 47.9167C12.5 49.5743 13.1585 51.164 14.3306 52.3361C15.5027 53.5082 17.0924 54.1667 18.75 54.1667C20.4076 54.1667 21.9973 53.5082 23.1694 52.3361C24.3415 51.164 25 49.5743 25 47.9167C25 46.2591 24.3415 44.6693 23.1694 43.4972C21.9973 42.3251 20.4076 41.6667 18.75 41.6667ZM68.75 37.5C71.1514 37.4995 73.4791 38.3287 75.3394 39.8473C77.1996 41.3658 78.4781 43.4805 78.9583 45.8333H83.3333V30.5L82.3333 29.1667H62.5V39.5833C64.25 38.2917 66.4167 37.5 68.75 37.5ZM68.75 41.6667C67.0924 41.6667 65.5027 42.3251 64.3306 43.4972C63.1585 44.6693 62.5 46.2591 62.5 47.9167C62.5 49.5743 63.1585 51.164 64.3306 52.3361C65.5027 53.5082 67.0924 54.1667 68.75 54.1667C70.4076 54.1667 71.9973 53.5082 73.1694 52.3361C74.3415 51.164 75 49.5743 75 47.9167C75 46.2591 74.3415 44.6693 73.1694 43.4972C71.9973 42.3251 70.4076 41.6667 68.75 41.6667ZM62.5 16.6667V25H79.1667L72.9167 16.6667H62.5Z" fill="#F97415"/>
</svg>
